<?xml version="1.0" encoding="utf-8"?>
<!-- Generator: Adobe Illustrator 23.0.1, SVG Export Plug-In . SVG Version: 6.00 Build 0)  -->
<svg version="1.1" id="Layer_1" xmlns="http://www.w3.org/2000/svg" xmlns:xlink="http://www.w3.org/1999/xlink" x="0px" y="0px"
	 viewBox="0 0 1000 700" style="enable-background:new 0 0 1000 700;" xml:space="preserve">
<style type="text/css">
	.st0{fill:#FFFFFF;stroke:#000000;stroke-width:1.2844;stroke-miterlimit:10;}
	.st1{fill:#FFFFFF;}
	.st2{fill:#E6E6E6;}
	.st3{fill:#6C63FF;}
	.st4{fill:#FFFFFF;stroke:#000000;stroke-width:0.7397;stroke-miterlimit:10;}
	.st5{fill:none;stroke:#000000;stroke-width:1.1948;stroke-miterlimit:10;}
	.st6{fill:#CCCCCC;}
</style>
<g>
	<g>
		<rect x="92.5" y="92.5" class="st0" width="224.63" height="479.12"/>
		<g>
			<path class="st1" d="M114.52,117.89c-1.77,0-3.2-1.44-3.2-3.2v-1.36c0-1.77,1.44-3.2,3.2-3.2h124.43c1.77,0,3.2,1.44,3.2,3.2
				v1.36c0,1.77-1.44,3.2-3.2,3.2H114.52z"/>
			<path d="M238.95,110.42c1.6,0,2.9,1.3,2.9,2.9v1.36c0,1.6-1.3,2.9-2.9,2.9H114.52c-1.6,0-2.9-1.3-2.9-2.9v-1.36
				c0-1.6,1.3-2.9,2.9-2.9H238.95 M238.95,109.82H114.52c-1.92,0-3.5,1.57-3.5,3.5v1.36c0,1.93,1.58,3.5,3.5,3.5h124.43
				c1.93,0,3.5-1.57,3.5-3.5v-1.36C242.45,111.4,240.87,109.82,238.95,109.82L238.95,109.82z"/>
		</g>
		<g>
			<path class="st2" d="M114.52,117.89c-1.77,0-3.2-1.44-3.2-3.2v-1.36c0-1.77,1.44-3.2,3.2-3.2h124.43c1.77,0,3.2,1.44,3.2,3.2
				v1.36c0,1.77-1.44,3.2-3.2,3.2H114.52z"/>
			<path d="M238.95,110.42c1.6,0,2.9,1.3,2.9,2.9v1.36c0,1.6-1.3,2.9-2.9,2.9H114.52c-1.6,0-2.9-1.3-2.9-2.9v-1.36
				c0-1.6,1.3-2.9,2.9-2.9H238.95 M238.95,109.82H114.52c-1.92,0-3.5,1.57-3.5,3.5v1.36c0,1.93,1.58,3.5,3.5,3.5h124.43
				c1.93,0,3.5-1.57,3.5-3.5v-1.36C242.45,111.4,240.87,109.82,238.95,109.82L238.95,109.82z"/>
		</g>
		<g>
			<path class="st3" d="M248.34,117.89c-1.77,0-3.2-1.44-3.2-3.2v-1.36c0-1.77,1.44-3.2,3.2-3.2h47.96c1.77,0,3.2,1.44,3.2,3.2v1.36
				c0,1.77-1.44,3.2-3.2,3.2H248.34z"/>
			<path d="M296.3,110.42c1.6,0,2.9,1.3,2.9,2.9v1.36c0,1.6-1.3,2.9-2.9,2.9h-47.96c-1.6,0-2.9-1.3-2.9-2.9v-1.36
				c0-1.6,1.3-2.9,2.9-2.9H296.3 M296.3,109.82h-47.96c-1.93,0-3.5,1.57-3.5,3.5v1.36c0,1.93,1.57,3.5,3.5,3.5h47.96
				c1.92,0,3.5-1.57,3.5-3.5v-1.36C299.8,111.4,298.23,109.82,296.3,109.82L296.3,109.82z"/>
		</g>
		<g>
			<path class="st2" d="M179.04,133.42c-1.77,0-3.2-1.44-3.2-3.2v-1.36c0-1.77,1.44-3.2,3.2-3.2H296.3c1.77,0,3.2,1.44,3.2,3.2v1.36
				c0,1.77-1.44,3.2-3.2,3.2H179.04z"/>
			<path d="M296.3,125.95c1.6,0,2.9,1.3,2.9,2.9v1.36c0,1.6-1.3,2.9-2.9,2.9H179.04c-1.6,0-2.9-1.3-2.9-2.9v-1.36
				c0-1.6,1.3-2.9,2.9-2.9H296.3 M296.3,125.36H179.04c-1.93,0-3.5,1.57-3.5,3.5v1.36c0,1.93,1.57,3.5,3.5,3.5H296.3
				c1.92,0,3.5-1.57,3.5-3.5v-1.36C299.8,126.93,298.23,125.36,296.3,125.36L296.3,125.36z"/>
		</g>
		<g>
			<path class="st2" d="M114.52,177.63c-1.77,0-3.2-1.44-3.2-3.2v-1.36c0-1.77,1.44-3.2,3.2-3.2H296.3c1.77,0,3.2,1.44,3.2,3.2v1.36
				c0,1.77-1.44,3.2-3.2,3.2H114.52z"/>
			<path d="M296.3,170.16c1.6,0,2.9,1.3,2.9,2.9v1.36c0,1.6-1.3,2.9-2.9,2.9H114.52c-1.6,0-2.9-1.3-2.9-2.9v-1.36
				c0-1.6,1.3-2.9,2.9-2.9H296.3 M296.3,169.57H114.52c-1.92,0-3.5,1.57-3.5,3.5v1.36c0,1.93,1.58,3.5,3.5,3.5H296.3
				c1.92,0,3.5-1.57,3.5-3.5v-1.36C299.8,171.14,298.23,169.57,296.3,169.57L296.3,169.57z"/>
		</g>
		<g>
			<path class="st2" d="M114.52,147.76c-1.77,0-3.2-1.44-3.2-3.2v-1.36c0-1.77,1.44-3.2,3.2-3.2H296.3c1.77,0,3.2,1.44,3.2,3.2v1.36
				c0,1.77-1.44,3.2-3.2,3.2H114.52z"/>
			<path d="M296.3,140.29c1.6,0,2.9,1.3,2.9,2.9v1.36c0,1.6-1.3,2.9-2.9,2.9H114.52c-1.6,0-2.9-1.3-2.9-2.9v-1.36
				c0-1.6,1.3-2.9,2.9-2.9H296.3 M296.3,139.7H114.52c-1.92,0-3.5,1.57-3.5,3.5v1.36c0,1.93,1.58,3.5,3.5,3.5H296.3
				c1.92,0,3.5-1.57,3.5-3.5v-1.36C299.8,141.27,298.23,139.7,296.3,139.7L296.3,139.7z"/>
		</g>
		<g>
			<path class="st3" d="M114.52,133.42c-1.77,0-3.2-1.44-3.2-3.2v-1.36c0-1.77,1.44-3.2,3.2-3.2h55.13c1.77,0,3.2,1.44,3.2,3.2v1.36
				c0,1.77-1.44,3.2-3.2,3.2H114.52z"/>
			<path d="M169.65,125.95c1.6,0,2.9,1.3,2.9,2.9v1.36c0,1.6-1.3,2.9-2.9,2.9h-55.13c-1.6,0-2.9-1.3-2.9-2.9v-1.36
				c0-1.6,1.3-2.9,2.9-2.9H169.65 M169.65,125.36h-55.13c-1.92,0-3.5,1.57-3.5,3.5v1.36c0,1.93,1.58,3.5,3.5,3.5h55.13
				c1.92,0,3.5-1.57,3.5-3.5v-1.36C173.15,126.93,171.57,125.36,169.65,125.36L169.65,125.36z"/>
		</g>
		<g>
			<path class="st2" d="M114.52,512.18c-1.77,0-3.2-1.44-3.2-3.2v-1.36c0-1.77,1.44-3.2,3.2-3.2h124.43c1.77,0,3.2,1.44,3.2,3.2
				v1.36c0,1.77-1.44,3.2-3.2,3.2H114.52z"/>
			<path d="M238.95,504.71c1.6,0,2.9,1.3,2.9,2.9v1.36c0,1.6-1.3,2.9-2.9,2.9H114.52c-1.6,0-2.9-1.3-2.9-2.9v-1.36
				c0-1.6,1.3-2.9,2.9-2.9H238.95 M238.95,504.11H114.52c-1.92,0-3.5,1.57-3.5,3.5v1.36c0,1.92,1.58,3.5,3.5,3.5h124.43
				c1.93,0,3.5-1.58,3.5-3.5v-1.36C242.45,505.69,240.87,504.11,238.95,504.11L238.95,504.11z"/>
		</g>
		<g>
			<path class="st3" d="M248.34,512.18c-1.77,0-3.2-1.44-3.2-3.2v-1.36c0-1.77,1.44-3.2,3.2-3.2h47.96c1.77,0,3.2,1.44,3.2,3.2v1.36
				c0,1.77-1.44,3.2-3.2,3.2H248.34z"/>
			<path d="M296.3,504.71c1.6,0,2.9,1.3,2.9,2.9v1.36c0,1.6-1.3,2.9-2.9,2.9h-47.96c-1.6,0-2.9-1.3-2.9-2.9v-1.36
				c0-1.6,1.3-2.9,2.9-2.9H296.3 M296.3,504.11h-47.96c-1.93,0-3.5,1.57-3.5,3.5v1.36c0,1.92,1.57,3.5,3.5,3.5h47.96
				c1.92,0,3.5-1.58,3.5-3.5v-1.36C299.8,505.69,298.23,504.11,296.3,504.11L296.3,504.11z"/>
		</g>
		<g>
			<path class="st2" d="M179.04,527.71c-1.77,0-3.2-1.44-3.2-3.2v-1.36c0-1.77,1.44-3.2,3.2-3.2H296.3c1.77,0,3.2,1.44,3.2,3.2v1.36
				c0,1.77-1.44,3.2-3.2,3.2H179.04z"/>
			<path d="M296.3,520.24c1.6,0,2.9,1.3,2.9,2.9v1.36c0,1.6-1.3,2.9-2.9,2.9H179.04c-1.6,0-2.9-1.3-2.9-2.9v-1.36
				c0-1.6,1.3-2.9,2.9-2.9H296.3 M296.3,519.65H179.04c-1.93,0-3.5,1.58-3.5,3.5v1.36c0,1.92,1.57,3.5,3.5,3.5H296.3
				c1.92,0,3.5-1.58,3.5-3.5v-1.36C299.8,521.22,298.23,519.65,296.3,519.65L296.3,519.65z"/>
		</g>
		<g>
			<path class="st3" d="M114.52,527.71c-1.77,0-3.2-1.44-3.2-3.2v-1.36c0-1.77,1.44-3.2,3.2-3.2h55.13c1.77,0,3.2,1.44,3.2,3.2v1.36
				c0,1.77-1.44,3.2-3.2,3.2H114.52z"/>
			<path d="M169.65,520.24c1.6,0,2.9,1.3,2.9,2.9v1.36c0,1.6-1.3,2.9-2.9,2.9h-55.13c-1.6,0-2.9-1.3-2.9-2.9v-1.36
				c0-1.6,1.3-2.9,2.9-2.9H169.65 M169.65,519.65h-55.13c-1.92,0-3.5,1.58-3.5,3.5v1.36c0,1.92,1.58,3.5,3.5,3.5h55.13
				c1.92,0,3.5-1.58,3.5-3.5v-1.36C173.15,521.22,171.57,519.65,169.65,519.65L169.65,519.65z"/>
		</g>
		<g>
			<path class="st2" d="M200.55,163.29c-1.77,0-3.2-1.44-3.2-3.2v-1.36c0-1.77,1.44-3.2,3.2-3.2h9.73c1.77,0,3.2,1.44,3.2,3.2v1.36
				c0,1.77-1.44,3.2-3.2,3.2H200.55z"/>
			<path d="M210.27,155.83c1.6,0,2.9,1.3,2.9,2.9v1.36c0,1.6-1.3,2.9-2.9,2.9h-9.73c-1.6,0-2.9-1.3-2.9-2.9v-1.36
				c0-1.6,1.3-2.9,2.9-2.9H210.27 M210.27,155.23h-9.73c-1.92,0-3.5,1.57-3.5,3.5v1.36c0,1.93,1.58,3.5,3.5,3.5h9.73
				c1.92,0,3.5-1.57,3.5-3.5v-1.36C213.77,156.8,212.2,155.23,210.27,155.23L210.27,155.23z"/>
		</g>
		<g>
			<path class="st3" d="M114.52,163.29c-1.77,0-3.2-1.44-3.2-3.2v-1.36c0-1.77,1.44-3.2,3.2-3.2h75.44c1.77,0,3.2,1.44,3.2,3.2v1.36
				c0,1.77-1.44,3.2-3.2,3.2H114.52z"/>
			<path d="M189.96,155.83c1.6,0,2.9,1.3,2.9,2.9v1.36c0,1.6-1.3,2.9-2.9,2.9h-75.44c-1.6,0-2.9-1.3-2.9-2.9v-1.36
				c0-1.6,1.3-2.9,2.9-2.9H189.96 M189.96,155.23h-75.44c-1.92,0-3.5,1.57-3.5,3.5v1.36c0,1.93,1.58,3.5,3.5,3.5h75.44
				c1.92,0,3.5-1.57,3.5-3.5v-1.36C193.46,156.8,191.89,155.23,189.96,155.23L189.96,155.23z"/>
		</g>
		<g>
			<path class="st3" d="M219.66,163.29c-1.77,0-3.2-1.44-3.2-3.2v-1.36c0-1.77,1.44-3.2,3.2-3.2h76.64c1.77,0,3.2,1.44,3.2,3.2v1.36
				c0,1.77-1.44,3.2-3.2,3.2H219.66z"/>
			<path d="M296.3,155.83c1.6,0,2.9,1.3,2.9,2.9v1.36c0,1.6-1.3,2.9-2.9,2.9h-76.64c-1.6,0-2.9-1.3-2.9-2.9v-1.36
				c0-1.6,1.3-2.9,2.9-2.9H296.3 M296.3,155.23h-76.64c-1.92,0-3.5,1.57-3.5,3.5v1.36c0,1.93,1.58,3.5,3.5,3.5h76.64
				c1.92,0,3.5-1.57,3.5-3.5v-1.36C299.8,156.8,298.23,155.23,296.3,155.23L296.3,155.23z"/>
		</g>
		<g>
			<path class="st2" d="M195.77,191.97c-1.77,0-3.2-1.44-3.2-3.2v-1.36c0-1.77,1.44-3.2,3.2-3.2h58.71c1.77,0,3.2,1.44,3.2,3.2v1.36
				c0,1.77-1.44,3.2-3.2,3.2H195.77z"/>
			<path d="M254.48,184.5c1.6,0,2.9,1.3,2.9,2.9v1.36c0,1.6-1.3,2.9-2.9,2.9h-58.71c-1.6,0-2.9-1.3-2.9-2.9v-1.36
				c0-1.6,1.3-2.9,2.9-2.9H254.48 M254.48,183.9h-58.71c-1.92,0-3.5,1.57-3.5,3.5v1.36c0,1.92,1.58,3.5,3.5,3.5h58.71
				c1.93,0,3.5-1.57,3.5-3.5v-1.36C257.98,185.48,256.41,183.9,254.48,183.9L254.48,183.9z"/>
		</g>
		<g>
			<path class="st3" d="M114.52,191.97c-1.77,0-3.2-1.44-3.2-3.2v-1.36c0-1.77,1.44-3.2,3.2-3.2h71.86c1.77,0,3.2,1.44,3.2,3.2v1.36
				c0,1.77-1.44,3.2-3.2,3.2H114.52z"/>
			<path d="M186.38,184.5c1.6,0,2.9,1.3,2.9,2.9v1.36c0,1.6-1.3,2.9-2.9,2.9h-71.86c-1.6,0-2.9-1.3-2.9-2.9v-1.36
				c0-1.6,1.3-2.9,2.9-2.9H186.38 M186.38,183.9h-71.86c-1.92,0-3.5,1.57-3.5,3.5v1.36c0,1.92,1.58,3.5,3.5,3.5h71.86
				c1.92,0,3.5-1.57,3.5-3.5v-1.36C189.88,185.48,188.3,183.9,186.38,183.9L186.38,183.9z"/>
		</g>
		<g>
			<path class="st3" d="M263.87,191.97c-1.77,0-3.2-1.44-3.2-3.2v-1.36c0-1.77,1.44-3.2,3.2-3.2h32.43c1.77,0,3.2,1.44,3.2,3.2v1.36
				c0,1.77-1.44,3.2-3.2,3.2H263.87z"/>
			<path d="M296.3,184.5c1.6,0,2.9,1.3,2.9,2.9v1.36c0,1.6-1.3,2.9-2.9,2.9h-32.43c-1.6,0-2.9-1.3-2.9-2.9v-1.36
				c0-1.6,1.3-2.9,2.9-2.9H296.3 M296.3,183.9h-32.43c-1.93,0-3.5,1.57-3.5,3.5v1.36c0,1.92,1.57,3.5,3.5,3.5h32.43
				c1.92,0,3.5-1.57,3.5-3.5v-1.36C299.8,185.48,298.23,183.9,296.3,183.9L296.3,183.9z"/>
		</g>
		<g>
			<path class="st1" d="M114.52,206.31c-1.77,0-3.2-1.44-3.2-3.2v-1.36c0-1.77,1.44-3.2,3.2-3.2h124.43c1.77,0,3.2,1.44,3.2,3.2
				v1.36c0,1.77-1.44,3.2-3.2,3.2H114.52z"/>
			<path d="M238.95,198.84c1.6,0,2.9,1.3,2.9,2.9v1.36c0,1.6-1.3,2.9-2.9,2.9H114.52c-1.6,0-2.9-1.3-2.9-2.9v-1.36
				c0-1.6,1.3-2.9,2.9-2.9H238.95 M238.95,198.24H114.52c-1.92,0-3.5,1.58-3.5,3.5v1.36c0,1.93,1.58,3.5,3.5,3.5h124.43
				c1.93,0,3.5-1.57,3.5-3.5v-1.36C242.45,199.82,240.87,198.24,238.95,198.24L238.95,198.24z"/>
		</g>
		<g>
			<path class="st2" d="M114.52,206.31c-1.77,0-3.2-1.44-3.2-3.2v-1.36c0-1.77,1.44-3.2,3.2-3.2h124.43c1.77,0,3.2,1.44,3.2,3.2
				v1.36c0,1.77-1.44,3.2-3.2,3.2H114.52z"/>
			<path d="M238.95,198.84c1.6,0,2.9,1.3,2.9,2.9v1.36c0,1.6-1.3,2.9-2.9,2.9H114.52c-1.6,0-2.9-1.3-2.9-2.9v-1.36
				c0-1.6,1.3-2.9,2.9-2.9H238.95 M238.95,198.24H114.52c-1.92,0-3.5,1.58-3.5,3.5v1.36c0,1.93,1.58,3.5,3.5,3.5h124.43
				c1.93,0,3.5-1.57,3.5-3.5v-1.36C242.45,199.82,240.87,198.24,238.95,198.24L238.95,198.24z"/>
		</g>
		<g>
			<path class="st3" d="M248.34,206.31c-1.77,0-3.2-1.44-3.2-3.2v-1.36c0-1.77,1.44-3.2,3.2-3.2h47.96c1.77,0,3.2,1.44,3.2,3.2v1.36
				c0,1.77-1.44,3.2-3.2,3.2H248.34z"/>
			<path d="M296.3,198.84c1.6,0,2.9,1.3,2.9,2.9v1.36c0,1.6-1.3,2.9-2.9,2.9h-47.96c-1.6,0-2.9-1.3-2.9-2.9v-1.36
				c0-1.6,1.3-2.9,2.9-2.9H296.3 M296.3,198.24h-47.96c-1.93,0-3.5,1.58-3.5,3.5v1.36c0,1.93,1.57,3.5,3.5,3.5h47.96
				c1.92,0,3.5-1.57,3.5-3.5v-1.36C299.8,199.82,298.23,198.24,296.3,198.24L296.3,198.24z"/>
		</g>
		<g>
			<path class="st2" d="M179.04,220.64c-1.77,0-3.2-1.44-3.2-3.2v-1.36c0-1.77,1.44-3.2,3.2-3.2H296.3c1.77,0,3.2,1.44,3.2,3.2v1.36
				c0,1.77-1.44,3.2-3.2,3.2H179.04z"/>
			<path d="M296.3,213.18c1.6,0,2.9,1.3,2.9,2.9v1.36c0,1.6-1.3,2.9-2.9,2.9H179.04c-1.6,0-2.9-1.3-2.9-2.9v-1.36
				c0-1.6,1.3-2.9,2.9-2.9H296.3 M296.3,212.58H179.04c-1.93,0-3.5,1.57-3.5,3.5v1.36c0,1.93,1.57,3.5,3.5,3.5H296.3
				c1.92,0,3.5-1.57,3.5-3.5v-1.36C299.8,214.15,298.23,212.58,296.3,212.58L296.3,212.58z"/>
		</g>
		<g>
			<path class="st2" d="M114.52,262.46c-1.77,0-3.2-1.44-3.2-3.2v-1.36c0-1.77,1.44-3.2,3.2-3.2H296.3c1.77,0,3.2,1.44,3.2,3.2v1.36
				c0,1.77-1.44,3.2-3.2,3.2H114.52z"/>
			<path d="M296.3,254.99c1.6,0,2.9,1.3,2.9,2.9v1.36c0,1.6-1.3,2.9-2.9,2.9H114.52c-1.6,0-2.9-1.3-2.9-2.9v-1.36
				c0-1.6,1.3-2.9,2.9-2.9H296.3 M296.3,254.4H114.52c-1.92,0-3.5,1.57-3.5,3.5v1.36c0,1.93,1.58,3.5,3.5,3.5H296.3
				c1.92,0,3.5-1.57,3.5-3.5v-1.36C299.8,255.97,298.23,254.4,296.3,254.4L296.3,254.4z"/>
		</g>
		<g>
			<path class="st2" d="M114.52,233.79c-1.77,0-3.2-1.44-3.2-3.2v-1.36c0-1.77,1.44-3.2,3.2-3.2H296.3c1.77,0,3.2,1.44,3.2,3.2v1.36
				c0,1.77-1.44,3.2-3.2,3.2H114.52z"/>
			<path d="M296.3,226.32c1.6,0,2.9,1.3,2.9,2.9v1.36c0,1.6-1.3,2.9-2.9,2.9H114.52c-1.6,0-2.9-1.3-2.9-2.9v-1.36
				c0-1.6,1.3-2.9,2.9-2.9H296.3 M296.3,225.72H114.52c-1.92,0-3.5,1.57-3.5,3.5v1.36c0,1.93,1.58,3.5,3.5,3.5H296.3
				c1.92,0,3.5-1.57,3.5-3.5v-1.36C299.8,227.3,298.23,225.72,296.3,225.72L296.3,225.72z"/>
		</g>
		<g>
			<path class="st3" d="M114.52,220.64c-1.77,0-3.2-1.44-3.2-3.2v-1.36c0-1.77,1.44-3.2,3.2-3.2h55.13c1.77,0,3.2,1.44,3.2,3.2v1.36
				c0,1.77-1.44,3.2-3.2,3.2H114.52z"/>
			<path d="M169.65,213.18c1.6,0,2.9,1.3,2.9,2.9v1.36c0,1.6-1.3,2.9-2.9,2.9h-55.13c-1.6,0-2.9-1.3-2.9-2.9v-1.36
				c0-1.6,1.3-2.9,2.9-2.9H169.65 M169.65,212.58h-55.13c-1.92,0-3.5,1.57-3.5,3.5v1.36c0,1.93,1.58,3.5,3.5,3.5h55.13
				c1.92,0,3.5-1.57,3.5-3.5v-1.36C173.15,214.15,171.57,212.58,169.65,212.58L169.65,212.58z"/>
		</g>
		<g>
			<path class="st2" d="M200.55,248.12c-1.77,0-3.2-1.44-3.2-3.2v-1.36c0-1.77,1.44-3.2,3.2-3.2h9.73c1.77,0,3.2,1.44,3.2,3.2v1.36
				c0,1.77-1.44,3.2-3.2,3.2H200.55z"/>
			<path d="M210.27,240.66c1.6,0,2.9,1.3,2.9,2.9v1.36c0,1.6-1.3,2.9-2.9,2.9h-9.73c-1.6,0-2.9-1.3-2.9-2.9v-1.36
				c0-1.6,1.3-2.9,2.9-2.9H210.27 M210.27,240.06h-9.73c-1.92,0-3.5,1.57-3.5,3.5v1.36c0,1.92,1.58,3.5,3.5,3.5h9.73
				c1.92,0,3.5-1.58,3.5-3.5v-1.36C213.77,241.63,212.2,240.06,210.27,240.06L210.27,240.06z"/>
		</g>
		<g>
			<path class="st3" d="M114.52,248.12c-1.77,0-3.2-1.44-3.2-3.2v-1.36c0-1.77,1.44-3.2,3.2-3.2h75.44c1.77,0,3.2,1.44,3.2,3.2v1.36
				c0,1.77-1.44,3.2-3.2,3.2H114.52z"/>
			<path d="M189.96,240.66c1.6,0,2.9,1.3,2.9,2.9v1.36c0,1.6-1.3,2.9-2.9,2.9h-75.44c-1.6,0-2.9-1.3-2.9-2.9v-1.36
				c0-1.6,1.3-2.9,2.9-2.9H189.96 M189.96,240.06h-75.44c-1.92,0-3.5,1.57-3.5,3.5v1.36c0,1.92,1.58,3.5,3.5,3.5h75.44
				c1.92,0,3.5-1.58,3.5-3.5v-1.36C193.46,241.63,191.89,240.06,189.96,240.06L189.96,240.06z"/>
		</g>
		<g>
			<path class="st3" d="M219.66,248.12c-1.77,0-3.2-1.44-3.2-3.2v-1.36c0-1.77,1.44-3.2,3.2-3.2h76.64c1.77,0,3.2,1.44,3.2,3.2v1.36
				c0,1.77-1.44,3.2-3.2,3.2H219.66z"/>
			<path d="M296.3,240.66c1.6,0,2.9,1.3,2.9,2.9v1.36c0,1.6-1.3,2.9-2.9,2.9h-76.64c-1.6,0-2.9-1.3-2.9-2.9v-1.36
				c0-1.6,1.3-2.9,2.9-2.9H296.3 M296.3,240.06h-76.64c-1.92,0-3.5,1.57-3.5,3.5v1.36c0,1.92,1.58,3.5,3.5,3.5h76.64
				c1.92,0,3.5-1.57,3.5-3.5v-1.36C299.8,241.63,298.23,240.06,296.3,240.06L296.3,240.06z"/>
		</g>
		<g>
			<path class="st2" d="M195.77,276.8c-1.77,0-3.2-1.44-3.2-3.2v-1.36c0-1.77,1.44-3.2,3.2-3.2h58.71c1.77,0,3.2,1.44,3.2,3.2v1.36
				c0,1.77-1.44,3.2-3.2,3.2H195.77z"/>
			<path d="M254.48,269.33c1.6,0,2.9,1.3,2.9,2.9v1.36c0,1.6-1.3,2.9-2.9,2.9h-58.71c-1.6,0-2.9-1.3-2.9-2.9v-1.36
				c0-1.6,1.3-2.9,2.9-2.9H254.48 M254.48,268.74h-58.71c-1.92,0-3.5,1.57-3.5,3.5v1.36c0,1.93,1.58,3.5,3.5,3.5h58.71
				c1.93,0,3.5-1.57,3.5-3.5v-1.36C257.98,270.31,256.41,268.74,254.48,268.74L254.48,268.74z"/>
		</g>
		<g>
			<path class="st3" d="M114.52,276.8c-1.77,0-3.2-1.44-3.2-3.2v-1.36c0-1.77,1.44-3.2,3.2-3.2h71.86c1.77,0,3.2,1.44,3.2,3.2v1.36
				c0,1.77-1.44,3.2-3.2,3.2H114.52z"/>
			<path d="M186.38,269.33c1.6,0,2.9,1.3,2.9,2.9v1.36c0,1.6-1.3,2.9-2.9,2.9h-71.86c-1.6,0-2.9-1.3-2.9-2.9v-1.36
				c0-1.6,1.3-2.9,2.9-2.9H186.38 M186.38,268.74h-71.86c-1.92,0-3.5,1.57-3.5,3.5v1.36c0,1.93,1.58,3.5,3.5,3.5h71.86
				c1.92,0,3.5-1.57,3.5-3.5v-1.36C189.88,270.31,188.3,268.74,186.38,268.74L186.38,268.74z"/>
		</g>
		<g>
			<path class="st3" d="M263.87,276.8c-1.77,0-3.2-1.44-3.2-3.2v-1.36c0-1.77,1.44-3.2,3.2-3.2h32.43c1.77,0,3.2,1.44,3.2,3.2v1.36
				c0,1.77-1.44,3.2-3.2,3.2H263.87z"/>
			<path d="M296.3,269.33c1.6,0,2.9,1.3,2.9,2.9v1.36c0,1.6-1.3,2.9-2.9,2.9h-32.43c-1.6,0-2.9-1.3-2.9-2.9v-1.36
				c0-1.6,1.3-2.9,2.9-2.9H296.3 M296.3,268.74h-32.43c-1.93,0-3.5,1.58-3.5,3.5v1.36c0,1.93,1.57,3.5,3.5,3.5h32.43
				c1.92,0,3.5-1.57,3.5-3.5v-1.36C299.8,270.31,298.23,268.74,296.3,268.74L296.3,268.74z"/>
		</g>
		<g>
			<path class="st1" d="M114.52,292.33c-1.77,0-3.2-1.44-3.2-3.2v-1.36c0-1.77,1.44-3.2,3.2-3.2h124.43c1.77,0,3.2,1.44,3.2,3.2
				v1.36c0,1.77-1.44,3.2-3.2,3.2H114.52z"/>
			<path d="M238.95,284.87c1.6,0,2.9,1.3,2.9,2.9v1.36c0,1.6-1.3,2.9-2.9,2.9H114.52c-1.6,0-2.9-1.3-2.9-2.9v-1.36
				c0-1.6,1.3-2.9,2.9-2.9H238.95 M238.95,284.27H114.52c-1.92,0-3.5,1.57-3.5,3.5v1.36c0,1.93,1.58,3.5,3.5,3.5h124.43
				c1.93,0,3.5-1.57,3.5-3.5v-1.36C242.45,285.84,240.87,284.27,238.95,284.27L238.95,284.27z"/>
		</g>
		<g>
			<path class="st2" d="M114.52,292.33c-1.77,0-3.2-1.44-3.2-3.2v-1.36c0-1.77,1.44-3.2,3.2-3.2h124.43c1.77,0,3.2,1.44,3.2,3.2
				v1.36c0,1.77-1.44,3.2-3.2,3.2H114.52z"/>
			<path d="M238.95,284.87c1.6,0,2.9,1.3,2.9,2.9v1.36c0,1.6-1.3,2.9-2.9,2.9H114.52c-1.6,0-2.9-1.3-2.9-2.9v-1.36
				c0-1.6,1.3-2.9,2.9-2.9H238.95 M238.95,284.27H114.52c-1.92,0-3.5,1.57-3.5,3.5v1.36c0,1.93,1.58,3.5,3.5,3.5h124.43
				c1.93,0,3.5-1.57,3.5-3.5v-1.36C242.45,285.84,240.87,284.27,238.95,284.27L238.95,284.27z"/>
		</g>
		<g>
			<path class="st3" d="M248.34,292.33c-1.77,0-3.2-1.44-3.2-3.2v-1.36c0-1.77,1.44-3.2,3.2-3.2h47.96c1.77,0,3.2,1.44,3.2,3.2v1.36
				c0,1.77-1.44,3.2-3.2,3.2H248.34z"/>
			<path d="M296.3,284.87c1.6,0,2.9,1.3,2.9,2.9v1.36c0,1.6-1.3,2.9-2.9,2.9h-47.96c-1.6,0-2.9-1.3-2.9-2.9v-1.36
				c0-1.6,1.3-2.9,2.9-2.9H296.3 M296.3,284.27h-47.96c-1.93,0-3.5,1.57-3.5,3.5v1.36c0,1.93,1.57,3.5,3.5,3.5h47.96
				c1.92,0,3.5-1.57,3.5-3.5v-1.36C299.8,285.84,298.23,284.27,296.3,284.27L296.3,284.27z"/>
		</g>
		<g>
			<path class="st2" d="M195.77,542.05c-1.77,0-3.2-1.44-3.2-3.2v-1.36c0-1.77,1.44-3.2,3.2-3.2h58.71c1.77,0,3.2,1.44,3.2,3.2v1.36
				c0,1.77-1.44,3.2-3.2,3.2H195.77z"/>
			<path d="M254.48,534.58c1.6,0,2.9,1.3,2.9,2.9v1.36c0,1.6-1.3,2.9-2.9,2.9h-58.71c-1.6,0-2.9-1.3-2.9-2.9v-1.36
				c0-1.6,1.3-2.9,2.9-2.9H254.48 M254.48,533.98h-58.71c-1.92,0-3.5,1.58-3.5,3.5v1.36c0,1.92,1.58,3.5,3.5,3.5h58.71
				c1.93,0,3.5-1.58,3.5-3.5v-1.36C257.98,535.56,256.41,533.98,254.48,533.98L254.48,533.98z"/>
		</g>
		<g>
			<path class="st3" d="M114.52,542.05c-1.77,0-3.2-1.44-3.2-3.2v-1.36c0-1.77,1.44-3.2,3.2-3.2h71.86c1.77,0,3.2,1.44,3.2,3.2v1.36
				c0,1.77-1.44,3.2-3.2,3.2H114.52z"/>
			<path d="M186.38,534.58c1.6,0,2.9,1.3,2.9,2.9v1.36c0,1.6-1.3,2.9-2.9,2.9h-71.86c-1.6,0-2.9-1.3-2.9-2.9v-1.36
				c0-1.6,1.3-2.9,2.9-2.9H186.38 M186.38,533.98h-71.86c-1.92,0-3.5,1.58-3.5,3.5v1.36c0,1.92,1.58,3.5,3.5,3.5h71.86
				c1.92,0,3.5-1.58,3.5-3.5v-1.36C189.88,535.56,188.3,533.98,186.38,533.98L186.38,533.98z"/>
		</g>
		<g>
			<path class="st3" d="M263.87,542.05c-1.77,0-3.2-1.44-3.2-3.2v-1.36c0-1.77,1.44-3.2,3.2-3.2h32.43c1.77,0,3.2,1.44,3.2,3.2v1.36
				c0,1.77-1.44,3.2-3.2,3.2H263.87z"/>
			<path d="M296.3,534.58c1.6,0,2.9,1.3,2.9,2.9v1.36c0,1.6-1.3,2.9-2.9,2.9h-32.43c-1.6,0-2.9-1.3-2.9-2.9v-1.36
				c0-1.6,1.3-2.9,2.9-2.9H296.3 M296.3,533.98h-32.43c-1.93,0-3.5,1.58-3.5,3.5v1.36c0,1.92,1.57,3.5,3.5,3.5h32.43
				c1.92,0,3.5-1.58,3.5-3.5v-1.36C299.8,535.56,298.23,533.98,296.3,533.98L296.3,533.98z"/>
		</g>
		<g>
			<path class="st2" d="M114.52,555.19c-1.77,0-3.2-1.44-3.2-3.2v-1.36c0-1.77,1.44-3.2,3.2-3.2h124.43c1.77,0,3.2,1.44,3.2,3.2
				v1.36c0,1.77-1.44,3.2-3.2,3.2H114.52z"/>
			<path d="M238.95,547.72c1.6,0,2.9,1.3,2.9,2.9v1.36c0,1.6-1.3,2.9-2.9,2.9H114.52c-1.6,0-2.9-1.3-2.9-2.9v-1.36
				c0-1.6,1.3-2.9,2.9-2.9H238.95 M238.95,547.13H114.52c-1.92,0-3.5,1.58-3.5,3.5v1.36c0,1.93,1.58,3.5,3.5,3.5h124.43
				c1.93,0,3.5-1.57,3.5-3.5v-1.36C242.45,548.7,240.87,547.13,238.95,547.13L238.95,547.13z"/>
		</g>
		<g>
			<path class="st3" d="M248.34,555.19c-1.77,0-3.2-1.44-3.2-3.2v-1.36c0-1.77,1.44-3.2,3.2-3.2h47.96c1.77,0,3.2,1.44,3.2,3.2v1.36
				c0,1.77-1.44,3.2-3.2,3.2H248.34z"/>
			<path d="M296.3,547.72c1.6,0,2.9,1.3,2.9,2.9v1.36c0,1.6-1.3,2.9-2.9,2.9h-47.96c-1.6,0-2.9-1.3-2.9-2.9v-1.36
				c0-1.6,1.3-2.9,2.9-2.9H296.3 M296.3,547.13h-47.96c-1.93,0-3.5,1.58-3.5,3.5v1.36c0,1.93,1.57,3.5,3.5,3.5h47.96
				c1.92,0,3.5-1.57,3.5-3.5v-1.36C299.8,548.7,298.23,547.13,296.3,547.13L296.3,547.13z"/>
		</g>
		<g>
			<path class="st2" d="M179.04,307.87c-1.77,0-3.2-1.44-3.2-3.2v-1.36c0-1.77,1.44-3.2,3.2-3.2H296.3c1.77,0,3.2,1.44,3.2,3.2v1.36
				c0,1.77-1.44,3.2-3.2,3.2H179.04z"/>
			<path d="M296.3,300.4c1.6,0,2.9,1.3,2.9,2.9v1.36c0,1.6-1.3,2.9-2.9,2.9H179.04c-1.6,0-2.9-1.3-2.9-2.9v-1.36
				c0-1.6,1.3-2.9,2.9-2.9H296.3 M296.3,299.8H179.04c-1.93,0-3.5,1.57-3.5,3.5v1.36c0,1.93,1.57,3.5,3.5,3.5H296.3
				c1.92,0,3.5-1.57,3.5-3.5v-1.36C299.8,301.38,298.23,299.8,296.3,299.8L296.3,299.8z"/>
		</g>
		<g>
			<path class="st2" d="M114.52,352.07c-1.77,0-3.2-1.44-3.2-3.2v-1.36c0-1.77,1.44-3.2,3.2-3.2H296.3c1.77,0,3.2,1.44,3.2,3.2v1.36
				c0,1.77-1.44,3.2-3.2,3.2H114.52z"/>
			<path d="M296.3,344.61c1.6,0,2.9,1.3,2.9,2.9v1.36c0,1.6-1.3,2.9-2.9,2.9H114.52c-1.6,0-2.9-1.3-2.9-2.9v-1.36
				c0-1.6,1.3-2.9,2.9-2.9H296.3 M296.3,344.01H114.52c-1.92,0-3.5,1.58-3.5,3.5v1.36c0,1.92,1.58,3.5,3.5,3.5H296.3
				c1.92,0,3.5-1.58,3.5-3.5v-1.36C299.8,345.58,298.23,344.01,296.3,344.01L296.3,344.01z"/>
		</g>
		<g>
			<path class="st2" d="M114.52,322.2c-1.77,0-3.2-1.44-3.2-3.2v-1.36c0-1.77,1.44-3.2,3.2-3.2H296.3c1.77,0,3.2,1.44,3.2,3.2V319
				c0,1.77-1.44,3.2-3.2,3.2H114.52z"/>
			<path d="M296.3,314.74c1.6,0,2.9,1.3,2.9,2.9V319c0,1.6-1.3,2.9-2.9,2.9H114.52c-1.6,0-2.9-1.3-2.9-2.9v-1.36
				c0-1.6,1.3-2.9,2.9-2.9H296.3 M296.3,314.14H114.52c-1.92,0-3.5,1.57-3.5,3.5V319c0,1.92,1.58,3.5,3.5,3.5H296.3
				c1.92,0,3.5-1.58,3.5-3.5v-1.36C299.8,315.71,298.23,314.14,296.3,314.14L296.3,314.14z"/>
		</g>
		<g>
			<path class="st3" d="M114.52,307.87c-1.77,0-3.2-1.44-3.2-3.2v-1.36c0-1.77,1.44-3.2,3.2-3.2h55.13c1.77,0,3.2,1.44,3.2,3.2v1.36
				c0,1.77-1.44,3.2-3.2,3.2H114.52z"/>
			<path d="M169.65,300.4c1.6,0,2.9,1.3,2.9,2.9v1.36c0,1.6-1.3,2.9-2.9,2.9h-55.13c-1.6,0-2.9-1.3-2.9-2.9v-1.36
				c0-1.6,1.3-2.9,2.9-2.9H169.65 M169.65,299.8h-55.13c-1.92,0-3.5,1.57-3.5,3.5v1.36c0,1.93,1.58,3.5,3.5,3.5h55.13
				c1.92,0,3.5-1.57,3.5-3.5v-1.36C173.15,301.38,171.57,299.8,169.65,299.8L169.65,299.8z"/>
		</g>
		<g>
			<path class="st2" d="M200.55,337.74c-1.77,0-3.2-1.44-3.2-3.2v-1.36c0-1.77,1.44-3.2,3.2-3.2h9.73c1.77,0,3.2,1.44,3.2,3.2v1.36
				c0,1.77-1.44,3.2-3.2,3.2H200.55z"/>
			<path d="M210.27,330.27c1.6,0,2.9,1.3,2.9,2.9v1.36c0,1.6-1.3,2.9-2.9,2.9h-9.73c-1.6,0-2.9-1.3-2.9-2.9v-1.36
				c0-1.6,1.3-2.9,2.9-2.9H210.27 M210.27,329.67h-9.73c-1.92,0-3.5,1.57-3.5,3.5v1.36c0,1.92,1.58,3.5,3.5,3.5h9.73
				c1.92,0,3.5-1.58,3.5-3.5v-1.36C213.77,331.25,212.2,329.67,210.27,329.67L210.27,329.67z"/>
		</g>
		<g>
			<path class="st3" d="M114.52,337.74c-1.77,0-3.2-1.44-3.2-3.2v-1.36c0-1.77,1.44-3.2,3.2-3.2h75.44c1.77,0,3.2,1.44,3.2,3.2v1.36
				c0,1.77-1.44,3.2-3.2,3.2H114.52z"/>
			<path d="M189.96,330.27c1.6,0,2.9,1.3,2.9,2.9v1.36c0,1.6-1.3,2.9-2.9,2.9h-75.44c-1.6,0-2.9-1.3-2.9-2.9v-1.36
				c0-1.6,1.3-2.9,2.9-2.9H189.96 M189.96,329.67h-75.44c-1.92,0-3.5,1.57-3.5,3.5v1.36c0,1.92,1.58,3.5,3.5,3.5h75.44
				c1.92,0,3.5-1.58,3.5-3.5v-1.36C193.46,331.25,191.89,329.67,189.96,329.67L189.96,329.67z"/>
		</g>
		<g>
			<path class="st3" d="M219.66,337.74c-1.77,0-3.2-1.44-3.2-3.2v-1.36c0-1.77,1.44-3.2,3.2-3.2h76.64c1.77,0,3.2,1.44,3.2,3.2v1.36
				c0,1.77-1.44,3.2-3.2,3.2H219.66z"/>
			<path d="M296.3,330.27c1.6,0,2.9,1.3,2.9,2.9v1.36c0,1.6-1.3,2.9-2.9,2.9h-76.64c-1.6,0-2.9-1.3-2.9-2.9v-1.36
				c0-1.6,1.3-2.9,2.9-2.9H296.3 M296.3,329.67h-76.64c-1.92,0-3.5,1.57-3.5,3.5v1.36c0,1.92,1.58,3.5,3.5,3.5h76.64
				c1.92,0,3.5-1.58,3.5-3.5v-1.36C299.8,331.25,298.23,329.67,296.3,329.67L296.3,329.67z"/>
		</g>
		<g>
			<path class="st2" d="M195.77,366.41c-1.77,0-3.2-1.44-3.2-3.2v-1.36c0-1.77,1.44-3.2,3.2-3.2h58.71c1.77,0,3.2,1.44,3.2,3.2v1.36
				c0,1.77-1.44,3.2-3.2,3.2H195.77z"/>
			<path d="M254.48,358.94c1.6,0,2.9,1.3,2.9,2.9v1.36c0,1.6-1.3,2.9-2.9,2.9h-58.71c-1.6,0-2.9-1.3-2.9-2.9v-1.36
				c0-1.6,1.3-2.9,2.9-2.9H254.48 M254.48,358.35h-58.71c-1.92,0-3.5,1.58-3.5,3.5v1.36c0,1.93,1.58,3.5,3.5,3.5h58.71
				c1.93,0,3.5-1.57,3.5-3.5v-1.36C257.98,359.92,256.41,358.35,254.48,358.35L254.48,358.35z"/>
		</g>
		<g>
			<path class="st3" d="M114.52,366.41c-1.77,0-3.2-1.44-3.2-3.2v-1.36c0-1.77,1.44-3.2,3.2-3.2h71.86c1.77,0,3.2,1.44,3.2,3.2v1.36
				c0,1.77-1.44,3.2-3.2,3.2H114.52z"/>
			<path d="M186.38,358.94c1.6,0,2.9,1.3,2.9,2.9v1.36c0,1.6-1.3,2.9-2.9,2.9h-71.86c-1.6,0-2.9-1.3-2.9-2.9v-1.36
				c0-1.6,1.3-2.9,2.9-2.9H186.38 M186.38,358.35h-71.86c-1.92,0-3.5,1.58-3.5,3.5v1.36c0,1.93,1.58,3.5,3.5,3.5h71.86
				c1.92,0,3.5-1.57,3.5-3.5v-1.36C189.88,359.92,188.3,358.35,186.38,358.35L186.38,358.35z"/>
		</g>
		<g>
			<path class="st3" d="M263.87,366.41c-1.77,0-3.2-1.44-3.2-3.2v-1.36c0-1.77,1.44-3.2,3.2-3.2h32.43c1.77,0,3.2,1.44,3.2,3.2v1.36
				c0,1.77-1.44,3.2-3.2,3.2H263.87z"/>
			<path d="M296.3,358.94c1.6,0,2.9,1.3,2.9,2.9v1.36c0,1.6-1.3,2.9-2.9,2.9h-32.43c-1.6,0-2.9-1.3-2.9-2.9v-1.36
				c0-1.6,1.3-2.9,2.9-2.9H296.3 M296.3,358.35h-32.43c-1.93,0-3.5,1.58-3.5,3.5v1.36c0,1.93,1.57,3.5,3.5,3.5h32.43
				c1.92,0,3.5-1.57,3.5-3.5v-1.36C299.8,359.92,298.23,358.35,296.3,358.35L296.3,358.35z"/>
		</g>
		<g>
			<path class="st1" d="M114.52,380.75c-1.77,0-3.2-1.44-3.2-3.2v-1.36c0-1.77,1.44-3.2,3.2-3.2h124.43c1.77,0,3.2,1.44,3.2,3.2
				v1.36c0,1.77-1.44,3.2-3.2,3.2H114.52z"/>
			<path d="M238.95,373.28c1.6,0,2.9,1.3,2.9,2.9v1.36c0,1.6-1.3,2.9-2.9,2.9H114.52c-1.6,0-2.9-1.3-2.9-2.9v-1.36
				c0-1.6,1.3-2.9,2.9-2.9H238.95 M238.95,372.68H114.52c-1.92,0-3.5,1.57-3.5,3.5v1.36c0,1.92,1.58,3.5,3.5,3.5h124.43
				c1.93,0,3.5-1.58,3.5-3.5v-1.36C242.45,374.26,240.87,372.68,238.95,372.68L238.95,372.68z"/>
		</g>
		<g>
			<path class="st2" d="M114.52,380.75c-1.77,0-3.2-1.44-3.2-3.2v-1.36c0-1.77,1.44-3.2,3.2-3.2h124.43c1.77,0,3.2,1.44,3.2,3.2
				v1.36c0,1.77-1.44,3.2-3.2,3.2H114.52z"/>
			<path d="M238.95,373.28c1.6,0,2.9,1.3,2.9,2.9v1.36c0,1.6-1.3,2.9-2.9,2.9H114.52c-1.6,0-2.9-1.3-2.9-2.9v-1.36
				c0-1.6,1.3-2.9,2.9-2.9H238.95 M238.95,372.68H114.52c-1.92,0-3.5,1.57-3.5,3.5v1.36c0,1.92,1.58,3.5,3.5,3.5h124.43
				c1.93,0,3.5-1.58,3.5-3.5v-1.36C242.45,374.26,240.87,372.68,238.95,372.68L238.95,372.68z"/>
		</g>
		<g>
			<path class="st3" d="M248.34,380.75c-1.77,0-3.2-1.44-3.2-3.2v-1.36c0-1.77,1.44-3.2,3.2-3.2h47.96c1.77,0,3.2,1.44,3.2,3.2v1.36
				c0,1.77-1.44,3.2-3.2,3.2H248.34z"/>
			<path d="M296.3,373.28c1.6,0,2.9,1.3,2.9,2.9v1.36c0,1.6-1.3,2.9-2.9,2.9h-47.96c-1.6,0-2.9-1.3-2.9-2.9v-1.36
				c0-1.6,1.3-2.9,2.9-2.9H296.3 M296.3,372.68h-47.96c-1.93,0-3.5,1.57-3.5,3.5v1.36c0,1.92,1.57,3.5,3.5,3.5h47.96
				c1.92,0,3.5-1.58,3.5-3.5v-1.36C299.8,374.26,298.23,372.68,296.3,372.68L296.3,372.68z"/>
		</g>
		<g>
			<path class="st2" d="M179.04,395.09c-1.77,0-3.2-1.44-3.2-3.2v-1.36c0-1.77,1.44-3.2,3.2-3.2H296.3c1.77,0,3.2,1.44,3.2,3.2v1.36
				c0,1.77-1.44,3.2-3.2,3.2H179.04z"/>
			<path d="M296.3,387.62c1.6,0,2.9,1.3,2.9,2.9v1.36c0,1.6-1.3,2.9-2.9,2.9H179.04c-1.6,0-2.9-1.3-2.9-2.9v-1.36
				c0-1.6,1.3-2.9,2.9-2.9H296.3 M296.3,387.02H179.04c-1.93,0-3.5,1.58-3.5,3.5v1.36c0,1.92,1.57,3.5,3.5,3.5H296.3
				c1.92,0,3.5-1.58,3.5-3.5v-1.36C299.8,388.6,298.23,387.02,296.3,387.02L296.3,387.02z"/>
		</g>
		<g>
			<path class="st2" d="M114.52,436.91c-1.77,0-3.2-1.44-3.2-3.2v-1.36c0-1.77,1.44-3.2,3.2-3.2H296.3c1.77,0,3.2,1.44,3.2,3.2v1.36
				c0,1.77-1.44,3.2-3.2,3.2H114.52z"/>
			<path d="M296.3,429.44c1.6,0,2.9,1.3,2.9,2.9v1.36c0,1.6-1.3,2.9-2.9,2.9H114.52c-1.6,0-2.9-1.3-2.9-2.9v-1.36
				c0-1.6,1.3-2.9,2.9-2.9H296.3 M296.3,428.84H114.52c-1.92,0-3.5,1.58-3.5,3.5v1.36c0,1.93,1.58,3.5,3.5,3.5H296.3
				c1.92,0,3.5-1.57,3.5-3.5v-1.36C299.8,430.42,298.23,428.84,296.3,428.84L296.3,428.84z"/>
		</g>
		<g>
			<path class="st2" d="M114.52,465.58c-1.77,0-3.2-1.44-3.2-3.2v-1.36c0-1.77,1.44-3.2,3.2-3.2H296.3c1.77,0,3.2,1.44,3.2,3.2v1.36
				c0,1.77-1.44,3.2-3.2,3.2H114.52z"/>
			<path d="M296.3,458.11c1.6,0,2.9,1.3,2.9,2.9v1.36c0,1.6-1.3,2.9-2.9,2.9H114.52c-1.6,0-2.9-1.3-2.9-2.9v-1.36
				c0-1.6,1.3-2.9,2.9-2.9H296.3 M296.3,457.52H114.52c-1.92,0-3.5,1.57-3.5,3.5v1.36c0,1.92,1.58,3.5,3.5,3.5H296.3
				c1.92,0,3.5-1.58,3.5-3.5v-1.36C299.8,459.09,298.23,457.52,296.3,457.52L296.3,457.52z"/>
		</g>
		<g>
			<path class="st2" d="M114.52,481.11c-1.77,0-3.2-1.44-3.2-3.2v-1.36c0-1.77,1.44-3.2,3.2-3.2H296.3c1.77,0,3.2,1.44,3.2,3.2v1.36
				c0,1.77-1.44,3.2-3.2,3.2H114.52z"/>
			<path d="M296.3,473.65c1.6,0,2.9,1.3,2.9,2.9v1.36c0,1.6-1.3,2.9-2.9,2.9H114.52c-1.6,0-2.9-1.3-2.9-2.9v-1.36
				c0-1.6,1.3-2.9,2.9-2.9H296.3 M296.3,473.05H114.52c-1.92,0-3.5,1.57-3.5,3.5v1.36c0,1.92,1.58,3.5,3.5,3.5H296.3
				c1.92,0,3.5-1.58,3.5-3.5v-1.36C299.8,474.62,298.23,473.05,296.3,473.05L296.3,473.05z"/>
		</g>
		<g>
			<path class="st2" d="M114.52,496.65c-1.77,0-3.2-1.44-3.2-3.2v-1.36c0-1.77,1.44-3.2,3.2-3.2H296.3c1.77,0,3.2,1.44,3.2,3.2v1.36
				c0,1.77-1.44,3.2-3.2,3.2H114.52z"/>
			<path d="M296.3,489.18c1.6,0,2.9,1.3,2.9,2.9v1.36c0,1.6-1.3,2.9-2.9,2.9H114.52c-1.6,0-2.9-1.3-2.9-2.9v-1.36
				c0-1.6,1.3-2.9,2.9-2.9H296.3 M296.3,488.58H114.52c-1.92,0-3.5,1.57-3.5,3.5v1.36c0,1.92,1.58,3.5,3.5,3.5H296.3
				c1.92,0,3.5-1.58,3.5-3.5v-1.36C299.8,490.16,298.23,488.58,296.3,488.58L296.3,488.58z"/>
		</g>
		<g>
			<path class="st2" d="M114.52,408.23c-1.77,0-3.2-1.44-3.2-3.2v-1.36c0-1.77,1.44-3.2,3.2-3.2H296.3c1.77,0,3.2,1.44,3.2,3.2v1.36
				c0,1.77-1.44,3.2-3.2,3.2H114.52z"/>
			<path d="M296.3,400.76c1.6,0,2.9,1.3,2.9,2.9v1.36c0,1.6-1.3,2.9-2.9,2.9H114.52c-1.6,0-2.9-1.3-2.9-2.9v-1.36
				c0-1.6,1.3-2.9,2.9-2.9H296.3 M296.3,400.16H114.52c-1.92,0-3.5,1.57-3.5,3.5v1.36c0,1.92,1.58,3.5,3.5,3.5H296.3
				c1.92,0,3.5-1.57,3.5-3.5v-1.36C299.8,401.74,298.23,400.16,296.3,400.16L296.3,400.16z"/>
		</g>
		<g>
			<path class="st3" d="M114.52,395.09c-1.77,0-3.2-1.44-3.2-3.2v-1.36c0-1.77,1.44-3.2,3.2-3.2h55.13c1.77,0,3.2,1.44,3.2,3.2v1.36
				c0,1.77-1.44,3.2-3.2,3.2H114.52z"/>
			<path d="M169.65,387.62c1.6,0,2.9,1.3,2.9,2.9v1.36c0,1.6-1.3,2.9-2.9,2.9h-55.13c-1.6,0-2.9-1.3-2.9-2.9v-1.36
				c0-1.6,1.3-2.9,2.9-2.9H169.65 M169.65,387.02h-55.13c-1.92,0-3.5,1.58-3.5,3.5v1.36c0,1.92,1.58,3.5,3.5,3.5h55.13
				c1.92,0,3.5-1.58,3.5-3.5v-1.36C173.15,388.6,171.57,387.02,169.65,387.02L169.65,387.02z"/>
		</g>
		<g>
			<path class="st2" d="M200.55,422.57c-1.77,0-3.2-1.44-3.2-3.2V418c0-1.77,1.44-3.2,3.2-3.2h9.73c1.77,0,3.2,1.44,3.2,3.2v1.36
				c0,1.77-1.44,3.2-3.2,3.2H200.55z"/>
			<path d="M210.27,415.1c1.6,0,2.9,1.3,2.9,2.9v1.36c0,1.6-1.3,2.9-2.9,2.9h-9.73c-1.6,0-2.9-1.3-2.9-2.9V418
				c0-1.6,1.3-2.9,2.9-2.9H210.27 M210.27,414.5h-9.73c-1.92,0-3.5,1.57-3.5,3.5v1.36c0,1.92,1.58,3.5,3.5,3.5h9.73
				c1.92,0,3.5-1.58,3.5-3.5V418C213.77,416.08,212.2,414.5,210.27,414.5L210.27,414.5z"/>
		</g>
		<g>
			<path class="st3" d="M114.52,422.57c-1.77,0-3.2-1.44-3.2-3.2V418c0-1.77,1.44-3.2,3.2-3.2h75.44c1.77,0,3.2,1.44,3.2,3.2v1.36
				c0,1.77-1.44,3.2-3.2,3.2H114.52z"/>
			<path d="M189.96,415.1c1.6,0,2.9,1.3,2.9,2.9v1.36c0,1.6-1.3,2.9-2.9,2.9h-75.44c-1.6,0-2.9-1.3-2.9-2.9V418
				c0-1.6,1.3-2.9,2.9-2.9H189.96 M189.96,414.5h-75.44c-1.92,0-3.5,1.57-3.5,3.5v1.36c0,1.92,1.58,3.5,3.5,3.5h75.44
				c1.92,0,3.5-1.58,3.5-3.5V418C193.46,416.08,191.89,414.5,189.96,414.5L189.96,414.5z"/>
		</g>
		<g>
			<path class="st3" d="M219.66,422.57c-1.77,0-3.2-1.44-3.2-3.2V418c0-1.77,1.44-3.2,3.2-3.2h76.64c1.77,0,3.2,1.44,3.2,3.2v1.36
				c0,1.77-1.44,3.2-3.2,3.2H219.66z"/>
			<path d="M296.3,415.1c1.6,0,2.9,1.3,2.9,2.9v1.36c0,1.6-1.3,2.9-2.9,2.9h-76.64c-1.6,0-2.9-1.3-2.9-2.9V418
				c0-1.6,1.3-2.9,2.9-2.9H296.3 M296.3,414.5h-76.64c-1.92,0-3.5,1.57-3.5,3.5v1.36c0,1.92,1.58,3.5,3.5,3.5h76.64
				c1.92,0,3.5-1.58,3.5-3.5V418C299.8,416.08,298.23,414.5,296.3,414.5L296.3,414.5z"/>
		</g>
		<g>
			<path class="st2" d="M195.77,451.24c-1.77,0-3.2-1.44-3.2-3.2v-1.36c0-1.77,1.44-3.2,3.2-3.2h58.71c1.77,0,3.2,1.44,3.2,3.2v1.36
				c0,1.77-1.44,3.2-3.2,3.2H195.77z"/>
			<path d="M254.48,443.78c1.6,0,2.9,1.3,2.9,2.9v1.36c0,1.6-1.3,2.9-2.9,2.9h-58.71c-1.6,0-2.9-1.3-2.9-2.9v-1.36
				c0-1.6,1.3-2.9,2.9-2.9H254.48 M254.48,443.18h-58.71c-1.92,0-3.5,1.57-3.5,3.5v1.36c0,1.93,1.58,3.5,3.5,3.5h58.71
				c1.93,0,3.5-1.57,3.5-3.5v-1.36C257.98,444.75,256.41,443.18,254.48,443.18L254.48,443.18z"/>
		</g>
		<g>
			<path class="st3" d="M114.52,451.24c-1.77,0-3.2-1.44-3.2-3.2v-1.36c0-1.77,1.44-3.2,3.2-3.2h71.86c1.77,0,3.2,1.44,3.2,3.2v1.36
				c0,1.77-1.44,3.2-3.2,3.2H114.52z"/>
			<path d="M186.38,443.78c1.6,0,2.9,1.3,2.9,2.9v1.36c0,1.6-1.3,2.9-2.9,2.9h-71.86c-1.6,0-2.9-1.3-2.9-2.9v-1.36
				c0-1.6,1.3-2.9,2.9-2.9H186.38 M186.38,443.18h-71.86c-1.92,0-3.5,1.57-3.5,3.5v1.36c0,1.93,1.58,3.5,3.5,3.5h71.86
				c1.92,0,3.5-1.57,3.5-3.5v-1.36C189.88,444.75,188.3,443.18,186.38,443.18L186.38,443.18z"/>
		</g>
		<g>
			<path class="st3" d="M263.87,451.24c-1.77,0-3.2-1.44-3.2-3.2v-1.36c0-1.77,1.44-3.2,3.2-3.2h32.43c1.77,0,3.2,1.44,3.2,3.2v1.36
				c0,1.77-1.44,3.2-3.2,3.2H263.87z"/>
			<path d="M296.3,443.78c1.6,0,2.9,1.3,2.9,2.9v1.36c0,1.6-1.3,2.9-2.9,2.9h-32.43c-1.6,0-2.9-1.3-2.9-2.9v-1.36
				c0-1.6,1.3-2.9,2.9-2.9H296.3 M296.3,443.18h-32.43c-1.93,0-3.5,1.57-3.5,3.5v1.36c0,1.93,1.57,3.5,3.5,3.5h32.43
				c1.92,0,3.5-1.57,3.5-3.5v-1.36C299.8,444.75,298.23,443.18,296.3,443.18L296.3,443.18z"/>
		</g>
	</g>
	<g>
		<rect x="674.37" y="262.16" class="st4" width="224.63" height="158.91"/>
		<g>
			<path class="st1" d="M695.2,285.16c-1.77,0-3.2-1.44-3.2-3.2v-1.36c0-1.77,1.44-3.2,3.2-3.2h124.43c1.77,0,3.2,1.44,3.2,3.2v1.36
				c0,1.77-1.44,3.2-3.2,3.2H695.2z"/>
			<path d="M819.63,277.7c1.6,0,2.9,1.3,2.9,2.9v1.36c0,1.6-1.3,2.9-2.9,2.9H695.2c-1.6,0-2.9-1.3-2.9-2.9v-1.36
				c0-1.6,1.3-2.9,2.9-2.9H819.63 M819.63,277.1H695.2c-1.92,0-3.5,1.58-3.5,3.5v1.36c0,1.93,1.58,3.5,3.5,3.5h124.43
				c1.92,0,3.5-1.57,3.5-3.5v-1.36C823.13,278.67,821.55,277.1,819.63,277.1L819.63,277.1z"/>
		</g>
		<g>
			<path class="st2" d="M695.2,285.16c-1.77,0-3.2-1.44-3.2-3.2v-1.36c0-1.77,1.44-3.2,3.2-3.2h124.43c1.77,0,3.2,1.44,3.2,3.2v1.36
				c0,1.77-1.44,3.2-3.2,3.2H695.2z"/>
			<path d="M819.63,277.7c1.6,0,2.9,1.3,2.9,2.9v1.36c0,1.6-1.3,2.9-2.9,2.9H695.2c-1.6,0-2.9-1.3-2.9-2.9v-1.36
				c0-1.6,1.3-2.9,2.9-2.9H819.63 M819.63,277.1H695.2c-1.92,0-3.5,1.58-3.5,3.5v1.36c0,1.93,1.58,3.5,3.5,3.5h124.43
				c1.92,0,3.5-1.57,3.5-3.5v-1.36C823.13,278.67,821.55,277.1,819.63,277.1L819.63,277.1z"/>
		</g>
		<g>
			<path class="st3" d="M829.02,285.16c-1.77,0-3.2-1.44-3.2-3.2v-1.36c0-1.77,1.44-3.2,3.2-3.2h47.96c1.77,0,3.2,1.44,3.2,3.2v1.36
				c0,1.77-1.44,3.2-3.2,3.2H829.02z"/>
			<path d="M876.98,277.7c1.6,0,2.9,1.3,2.9,2.9v1.36c0,1.6-1.3,2.9-2.9,2.9h-47.96c-1.6,0-2.9-1.3-2.9-2.9v-1.36
				c0-1.6,1.3-2.9,2.9-2.9H876.98 M876.98,277.1h-47.96c-1.92,0-3.5,1.58-3.5,3.5v1.36c0,1.93,1.58,3.5,3.5,3.5h47.96
				c1.93,0,3.5-1.57,3.5-3.5v-1.36C880.48,278.67,878.91,277.1,876.98,277.1L876.98,277.1z"/>
		</g>
		<g>
			<path class="st2" d="M759.72,300.7c-1.77,0-3.2-1.44-3.2-3.2v-1.36c0-1.77,1.44-3.2,3.2-3.2h117.26c1.77,0,3.2,1.44,3.2,3.2v1.36
				c0,1.77-1.44,3.2-3.2,3.2H759.72z"/>
			<path d="M876.98,293.23c1.6,0,2.9,1.3,2.9,2.9v1.36c0,1.6-1.3,2.9-2.9,2.9H759.72c-1.6,0-2.9-1.3-2.9-2.9v-1.36
				c0-1.6,1.3-2.9,2.9-2.9H876.98 M876.98,292.63H759.72c-1.92,0-3.5,1.58-3.5,3.5v1.36c0,1.93,1.58,3.5,3.5,3.5h117.26
				c1.93,0,3.5-1.57,3.5-3.5v-1.36C880.48,294.21,878.91,292.63,876.98,292.63L876.98,292.63z"/>
		</g>
		<g>
			<path class="st2" d="M695.2,344.9c-1.77,0-3.2-1.44-3.2-3.2v-1.36c0-1.77,1.44-3.2,3.2-3.2h181.78c1.77,0,3.2,1.44,3.2,3.2v1.36
				c0,1.77-1.44,3.2-3.2,3.2H695.2z"/>
			<path d="M876.98,337.44c1.6,0,2.9,1.3,2.9,2.9v1.36c0,1.6-1.3,2.9-2.9,2.9H695.2c-1.6,0-2.9-1.3-2.9-2.9v-1.36
				c0-1.6,1.3-2.9,2.9-2.9H876.98 M876.98,336.84H695.2c-1.92,0-3.5,1.58-3.5,3.5v1.36c0,1.92,1.58,3.5,3.5,3.5h181.78
				c1.93,0,3.5-1.58,3.5-3.5v-1.36C880.48,338.41,878.91,336.84,876.98,336.84L876.98,336.84z"/>
		</g>
		<g>
			<path class="st2" d="M695.2,315.03c-1.77,0-3.2-1.44-3.2-3.2v-1.36c0-1.77,1.44-3.2,3.2-3.2h181.78c1.77,0,3.2,1.44,3.2,3.2v1.36
				c0,1.77-1.44,3.2-3.2,3.2H695.2z"/>
			<path d="M876.98,307.57c1.6,0,2.9,1.3,2.9,2.9v1.36c0,1.6-1.3,2.9-2.9,2.9H695.2c-1.6,0-2.9-1.3-2.9-2.9v-1.36
				c0-1.6,1.3-2.9,2.9-2.9H876.98 M876.98,306.97H695.2c-1.92,0-3.5,1.57-3.5,3.5v1.36c0,1.92,1.58,3.5,3.5,3.5h181.78
				c1.93,0,3.5-1.58,3.5-3.5v-1.36C880.48,308.54,878.91,306.97,876.98,306.97L876.98,306.97z"/>
		</g>
		<g>
			<path class="st3" d="M695.2,300.7c-1.77,0-3.2-1.44-3.2-3.2v-1.36c0-1.77,1.44-3.2,3.2-3.2h55.13c1.77,0,3.2,1.44,3.2,3.2v1.36
				c0,1.77-1.44,3.2-3.2,3.2H695.2z"/>
			<path d="M750.33,293.23c1.6,0,2.9,1.3,2.9,2.9v1.36c0,1.6-1.3,2.9-2.9,2.9H695.2c-1.6,0-2.9-1.3-2.9-2.9v-1.36
				c0-1.6,1.3-2.9,2.9-2.9H750.33 M750.33,292.63H695.2c-1.92,0-3.5,1.58-3.5,3.5v1.36c0,1.93,1.58,3.5,3.5,3.5h55.13
				c1.92,0,3.5-1.57,3.5-3.5v-1.36C753.83,294.21,752.26,292.63,750.33,292.63L750.33,292.63z"/>
		</g>
		<g>
			<path class="st2" d="M781.23,330.57c-1.77,0-3.2-1.44-3.2-3.2V326c0-1.77,1.44-3.2,3.2-3.2h9.73c1.77,0,3.2,1.44,3.2,3.2v1.36
				c0,1.77-1.44,3.2-3.2,3.2H781.23z"/>
			<path d="M790.95,323.1c1.6,0,2.9,1.3,2.9,2.9v1.36c0,1.6-1.3,2.9-2.9,2.9h-9.73c-1.6,0-2.9-1.3-2.9-2.9V326
				c0-1.6,1.3-2.9,2.9-2.9H790.95 M790.95,322.5h-9.73c-1.93,0-3.5,1.57-3.5,3.5v1.36c0,1.92,1.57,3.5,3.5,3.5h9.73
				c1.92,0,3.5-1.57,3.5-3.5V326C794.45,324.08,792.88,322.5,790.95,322.5L790.95,322.5z"/>
		</g>
		<g>
			<path class="st3" d="M695.2,330.57c-1.77,0-3.2-1.44-3.2-3.2V326c0-1.77,1.44-3.2,3.2-3.2h75.44c1.77,0,3.2,1.44,3.2,3.2v1.36
				c0,1.77-1.44,3.2-3.2,3.2H695.2z"/>
			<path d="M770.64,323.1c1.6,0,2.9,1.3,2.9,2.9v1.36c0,1.6-1.3,2.9-2.9,2.9H695.2c-1.6,0-2.9-1.3-2.9-2.9V326
				c0-1.6,1.3-2.9,2.9-2.9H770.64 M770.64,322.5H695.2c-1.92,0-3.5,1.57-3.5,3.5v1.36c0,1.92,1.58,3.5,3.5,3.5h75.44
				c1.92,0,3.5-1.57,3.5-3.5V326C774.14,324.08,772.57,322.5,770.64,322.5L770.64,322.5z"/>
		</g>
		<g>
			<path class="st3" d="M800.34,330.57c-1.77,0-3.2-1.44-3.2-3.2V326c0-1.77,1.44-3.2,3.2-3.2h76.64c1.77,0,3.2,1.44,3.2,3.2v1.36
				c0,1.77-1.44,3.2-3.2,3.2H800.34z"/>
			<path d="M876.98,323.1c1.6,0,2.9,1.3,2.9,2.9v1.36c0,1.6-1.3,2.9-2.9,2.9h-76.64c-1.6,0-2.9-1.3-2.9-2.9V326
				c0-1.6,1.3-2.9,2.9-2.9H876.98 M876.98,322.5h-76.64c-1.92,0-3.5,1.57-3.5,3.5v1.36c0,1.92,1.58,3.5,3.5,3.5h76.64
				c1.93,0,3.5-1.57,3.5-3.5V326C880.48,324.08,878.91,322.5,876.98,322.5L876.98,322.5z"/>
		</g>
		<g>
			<path class="st2" d="M695.2,372.38c-1.77,0-3.2-1.44-3.2-3.2v-1.36c0-1.77,1.44-3.2,3.2-3.2h181.78c1.77,0,3.2,1.44,3.2,3.2v1.36
				c0,1.77-1.44,3.2-3.2,3.2H695.2z"/>
			<path d="M876.98,364.92c1.6,0,2.9,1.3,2.9,2.9v1.36c0,1.6-1.3,2.9-2.9,2.9H695.2c-1.6,0-2.9-1.3-2.9-2.9v-1.36
				c0-1.6,1.3-2.9,2.9-2.9H876.98 M876.98,364.32H695.2c-1.92,0-3.5,1.57-3.5,3.5v1.36c0,1.92,1.58,3.5,3.5,3.5h181.78
				c1.93,0,3.5-1.58,3.5-3.5v-1.36C880.48,365.9,878.91,364.32,876.98,364.32L876.98,364.32z"/>
		</g>
		<g>
			<path class="st2" d="M781.23,358.05c-1.77,0-3.2-1.44-3.2-3.2v-1.36c0-1.77,1.44-3.2,3.2-3.2h9.73c1.77,0,3.2,1.44,3.2,3.2v1.36
				c0,1.77-1.44,3.2-3.2,3.2H781.23z"/>
			<path d="M790.95,350.58c1.6,0,2.9,1.3,2.9,2.9v1.36c0,1.6-1.3,2.9-2.9,2.9h-9.73c-1.6,0-2.9-1.3-2.9-2.9v-1.36
				c0-1.6,1.3-2.9,2.9-2.9H790.95 M790.95,349.98h-9.73c-1.93,0-3.5,1.57-3.5,3.5v1.36c0,1.92,1.57,3.5,3.5,3.5h9.73
				c1.92,0,3.5-1.57,3.5-3.5v-1.36C794.45,351.56,792.88,349.98,790.95,349.98L790.95,349.98z"/>
		</g>
		<g>
			<path class="st3" d="M695.2,358.05c-1.77,0-3.2-1.44-3.2-3.2v-1.36c0-1.77,1.44-3.2,3.2-3.2h75.44c1.77,0,3.2,1.44,3.2,3.2v1.36
				c0,1.77-1.44,3.2-3.2,3.2H695.2z"/>
			<path d="M770.64,350.58c1.6,0,2.9,1.3,2.9,2.9v1.36c0,1.6-1.3,2.9-2.9,2.9H695.2c-1.6,0-2.9-1.3-2.9-2.9v-1.36
				c0-1.6,1.3-2.9,2.9-2.9H770.64 M770.64,349.98H695.2c-1.92,0-3.5,1.57-3.5,3.5v1.36c0,1.92,1.58,3.5,3.5,3.5h75.44
				c1.92,0,3.5-1.57,3.5-3.5v-1.36C774.14,351.56,772.57,349.98,770.64,349.98L770.64,349.98z"/>
		</g>
		<g>
			<path class="st3" d="M800.34,358.05c-1.77,0-3.2-1.44-3.2-3.2v-1.36c0-1.77,1.44-3.2,3.2-3.2h76.64c1.77,0,3.2,1.44,3.2,3.2v1.36
				c0,1.77-1.44,3.2-3.2,3.2H800.34z"/>
			<path d="M876.98,350.58c1.6,0,2.9,1.3,2.9,2.9v1.36c0,1.6-1.3,2.9-2.9,2.9h-76.64c-1.6,0-2.9-1.3-2.9-2.9v-1.36
				c0-1.6,1.3-2.9,2.9-2.9H876.98 M876.98,349.98h-76.64c-1.92,0-3.5,1.57-3.5,3.5v1.36c0,1.92,1.58,3.5,3.5,3.5h76.64
				c1.93,0,3.5-1.57,3.5-3.5v-1.36C880.48,351.56,878.91,349.98,876.98,349.98L876.98,349.98z"/>
		</g>
		<g>
			<path class="st2" d="M695.2,386.72c-1.77,0-3.2-1.44-3.2-3.2v-1.36c0-1.77,1.44-3.2,3.2-3.2h181.78c1.77,0,3.2,1.44,3.2,3.2v1.36
				c0,1.77-1.44,3.2-3.2,3.2H695.2z"/>
			<path d="M876.98,379.26c1.6,0,2.9,1.3,2.9,2.9v1.36c0,1.6-1.3,2.9-2.9,2.9H695.2c-1.6,0-2.9-1.3-2.9-2.9v-1.36
				c0-1.6,1.3-2.9,2.9-2.9H876.98 M876.98,378.66H695.2c-1.92,0-3.5,1.58-3.5,3.5v1.36c0,1.92,1.58,3.5,3.5,3.5h181.78
				c1.93,0,3.5-1.58,3.5-3.5v-1.36C880.48,380.23,878.91,378.66,876.98,378.66L876.98,378.66z"/>
		</g>
		<g>
			<path class="st2" d="M776.45,401.06c-1.77,0-3.2-1.44-3.2-3.2v-1.36c0-1.77,1.44-3.2,3.2-3.2h58.71c1.77,0,3.2,1.44,3.2,3.2v1.36
				c0,1.77-1.44,3.2-3.2,3.2H776.45z"/>
			<path d="M835.16,393.59c1.6,0,2.9,1.3,2.9,2.9v1.36c0,1.6-1.3,2.9-2.9,2.9h-58.71c-1.6,0-2.9-1.3-2.9-2.9v-1.36
				c0-1.6,1.3-2.9,2.9-2.9H835.16 M835.16,393h-58.71c-1.92,0-3.5,1.58-3.5,3.5v1.36c0,1.93,1.58,3.5,3.5,3.5h58.71
				c1.92,0,3.5-1.57,3.5-3.5v-1.36C838.66,394.57,837.09,393,835.16,393L835.16,393z"/>
		</g>
		<g>
			<path class="st3" d="M695.2,401.06c-1.77,0-3.2-1.44-3.2-3.2v-1.36c0-1.77,1.44-3.2,3.2-3.2h71.86c1.77,0,3.2,1.44,3.2,3.2v1.36
				c0,1.77-1.44,3.2-3.2,3.2H695.2z"/>
			<path d="M767.06,393.59c1.6,0,2.9,1.3,2.9,2.9v1.36c0,1.6-1.3,2.9-2.9,2.9H695.2c-1.6,0-2.9-1.3-2.9-2.9v-1.36
				c0-1.6,1.3-2.9,2.9-2.9H767.06 M767.06,393H695.2c-1.92,0-3.5,1.58-3.5,3.5v1.36c0,1.93,1.58,3.5,3.5,3.5h71.86
				c1.92,0,3.5-1.57,3.5-3.5v-1.36C770.56,394.57,768.98,393,767.06,393L767.06,393z"/>
		</g>
		<g>
			<path class="st3" d="M844.55,401.06c-1.77,0-3.2-1.44-3.2-3.2v-1.36c0-1.77,1.44-3.2,3.2-3.2h32.43c1.77,0,3.2,1.44,3.2,3.2v1.36
				c0,1.77-1.44,3.2-3.2,3.2H844.55z"/>
			<path d="M876.98,393.59c1.6,0,2.9,1.3,2.9,2.9v1.36c0,1.6-1.3,2.9-2.9,2.9h-32.43c-1.6,0-2.9-1.3-2.9-2.9v-1.36
				c0-1.6,1.3-2.9,2.9-2.9H876.98 M876.98,393h-32.43c-1.92,0-3.5,1.58-3.5,3.5v1.36c0,1.93,1.58,3.5,3.5,3.5h32.43
				c1.93,0,3.5-1.57,3.5-3.5v-1.36C880.48,394.57,878.91,393,876.98,393L876.98,393z"/>
		</g>
	</g>
	<line class="st5" x1="317.13" y1="155.83" x2="674.37" y2="275.31"/>
	<line class="st5" x1="317.13" y1="283.67" x2="674.37" y2="308.76"/>
	<line class="st5" x1="317.13" y1="495.15" x2="674.37" y2="386.42"/>
	<line class="st5" x1="317.13" y1="378.06" x2="674.37" y2="352.97"/>
</g>
<ellipse class="st2" cx="788.5" cy="583.5" rx="113.5" ry="15.5"/>
<ellipse class="st6" cx="206.5" cy="614.5" rx="113.5" ry="15.5"/>
</svg>
