<?xml version="1.0" encoding="utf-8"?>
<!-- Generator: Adobe Illustrator 23.0.1, SVG Export Plug-In . SVG Version: 6.00 Build 0)  -->
<svg version="1.1" id="Layer_1" xmlns="http://www.w3.org/2000/svg" xmlns:xlink="http://www.w3.org/1999/xlink" x="0px" y="0px"
	 viewBox="0 0 1000 700" style="enable-background:new 0 0 1000 700;" xml:space="preserve">
<style type="text/css">
	.st0{fill:#6C63FF;}
	.st1{fill:none;stroke:#000000;stroke-width:2.6043;stroke-miterlimit:10;}
	.st2{fill:#E6E6E6;}
</style>
<g>
	<g>
		<g>
			<g>
				<circle class="st0" cx="500.15" cy="216.72" r="26.04"/>
			</g>
			<g>
				<circle class="st0" cx="500.15" cy="106.04" r="26.04"/>
			</g>
			<g>
				<circle class="st0" cx="500.15" cy="328.71" r="26.04"/>
			</g>
			<g>
				<circle class="st0" cx="500.15" cy="440.69" r="26.04"/>
			</g>
		</g>
		<g>
			<g>
				<circle class="st0" cx="256.65" cy="168.55" r="26.04"/>
			</g>
			<g>
				<circle class="st0" cx="256.65" cy="280.53" r="26.04"/>
			</g>
			<g>
				<circle class="st0" cx="256.65" cy="392.52" r="26.04"/>
			</g>
		</g>
		<g>
			<circle class="st0" cx="742.35" cy="280.53" r="26.04"/>
		</g>
		<line class="st1" x1="280.08" y1="154.22" x2="472.8" y2="108.65"/>
		<line class="st1" x1="281.39" y1="380.79" x2="474.1" y2="335.22"/>
		<line class="st1" x1="276.18" y1="374.29" x2="476.71" y2="233.66"/>
		<line class="st1" x1="272.27" y1="370.38" x2="481.92" y2="128.18"/>
		<line class="st1" x1="281.39" y1="404.24" x2="474.1" y2="449.81"/>
		<line class="st1" x1="278.78" y1="296.15" x2="472.8" y2="330.01"/>
		<line class="st1" x1="276.18" y1="300.06" x2="472.8" y2="436.8"/>
		<line class="st1" x1="281.39" y1="180.26" x2="472.8" y2="214.12"/>
		<line class="st1" x1="280.08" y1="184.17" x2="476.71" y2="313.09"/>
		<line class="st1" x1="273.57" y1="189.38" x2="479.31" y2="422.47"/>
		<line class="st1" x1="280.08" y1="266.2" x2="472.8" y2="220.63"/>
		<line class="st1" x1="274.87" y1="259.7" x2="478.01" y2="122.97"/>
		<line class="st1" x1="720.22" y1="264.91" x2="527.5" y2="219.33"/>
		<line class="st1" x1="726.73" y1="257.1" x2="527.5" y2="107.34"/>
		<line class="st1" x1="718.92" y1="294.85" x2="528.79" y2="327.41"/>
		<line class="st1" x1="725.43" y1="302.67" x2="524.9" y2="426.38"/>
	</g>
	<ellipse class="st2" cx="499.5" cy="572.44" rx="271.5" ry="31.02"/>
</g>
</svg>
